<svg width="14" height="15" viewBox="0 0 14 15" fill="none" xmlns="http://www.w3.org/2000/svg">
<path fill-rule="evenodd" clip-rule="evenodd" d="M6.98144 0C10.7651 0 13.8438 3.17677 13.8438 7.04255C13.8438 10.9467 10.7651 14.1234 6.98144 14.1234C3.23497 14.1234 0.15625 10.9467 0.15625 7.04255C0.15625 3.17677 3.23497 0 6.98144 0ZM7.27819 2.7175C7.90882 2.7175 8.39097 3.25334 8.39097 3.86571C8.35383 4.51643 7.87167 5.01392 7.27819 5.01392C6.64757 5.01392 6.16542 4.47809 6.16542 3.86571C6.16542 3.215 6.68472 2.7175 7.27819 2.7175ZM8.87323 10.4491C8.53935 11.7122 5.27512 11.8269 5.49779 10.1046C5.64616 8.95636 5.86872 7.84636 6.05423 6.73638C6.16556 6.00912 5.72036 6.23878 5.31237 6.08567C5.05267 5.97079 5.05267 5.62638 5.38656 5.54983C5.79462 5.43496 7.24119 5.51151 7.72343 5.51151C7.98313 5.51151 8.13149 5.66461 8.16855 5.93257C8.16855 6.16221 8.13141 6.35362 8.09436 6.58328C7.90885 7.65494 7.64925 8.80326 7.50089 9.87505C7.50089 10.1047 7.53802 10.5258 7.87182 10.4874C8.2057 10.4874 8.35406 10.3343 8.61368 10.2195C8.76205 10.1429 8.91043 10.2578 8.87338 10.4491L8.87323 10.4491Z" fill="#BDBDBD"/>
</svg>
